<?xml version="1.0" standalone="no"?>
<!DOCTYPE svg PUBLIC "-//W3C//DTD SVG 20010904//EN"
 "http://www.w3.org/TR/2001/REC-SVG-20010904/DTD/svg10.dtd">
<svg version="1.0" xmlns="http://www.w3.org/2000/svg"
 width="500.000000pt" height="500.000000pt" viewBox="0 0 500.000000 500.000000"
 preserveAspectRatio="xMidYMid meet">

<g transform="translate(0.000000,500.000000) scale(0.100000,-0.100000)"
fill="#000000" stroke="none">
<path d="M3430 3299 l0 -262 42 7 c23 4 43 8 44 9 1 1 4 113 6 249 l3 246 -35
6 c-19 3 -41 6 -47 6 -10 0 -13 -59 -13 -261z"/>
<path d="M2295 3521 c-19 -7 -21 -25 -35 -242 -9 -129 -16 -235 -15 -236 0 -1
26 -4 56 -7 l56 -5 6 151 c4 83 7 195 7 250 l0 98 -27 -1 c-16 0 -37 -4 -48
-8z"/>
<path d="M1264 3468 c-4 -6 -10 -119 -12 -250 l-5 -238 24 0 c13 0 41 -3 62
-6 l37 -7 0 120 c0 66 -3 181 -7 256 l-6 137 -43 0 c-24 0 -46 -5 -50 -12z"/>
<path d="M2693 3473 c-13 -2 -23 -5 -24 -6 0 -1 -6 -113 -12 -250 -13 -274
-18 -253 56 -241 l37 7 0 248 c0 273 5 254 -57 242z"/>
<path d="M3635 3451 c-19 -8 -21 -23 -31 -252 -6 -134 -10 -245 -9 -247 1 -2
24 1 51 5 l49 8 3 248 2 247 -22 -1 c-13 0 -32 -4 -43 -8z"/>
<path d="M1460 3239 c0 -118 -3 -232 -7 -253 l-6 -39 47 5 c26 3 48 7 50 9 5
5 37 471 33 475 -2 2 -29 6 -60 10 l-57 7 0 -214z"/>
<path d="M3227 3443 c-4 -3 -7 -116 -7 -250 0 -225 1 -243 18 -243 9 0 34 -3
55 -6 l37 -7 0 129 c0 71 -3 186 -7 257 l-6 127 -42 0 c-23 0 -45 -3 -48 -7z"/>
<path d="M2856 3383 c-3 -32 -10 -123 -16 -203 -6 -80 -12 -164 -15 -187 l-5
-43 48 0 c26 0 52 4 59 8 7 5 14 81 19 236 8 251 9 246 -53 246 -31 0 -31 -1
-37 -57z"/>
<path d="M1880 3403 c0 -16 -7 -118 -15 -227 -8 -110 -13 -202 -11 -204 2 -2
29 -6 60 -9 l56 -6 0 237 0 236 -45 0 c-42 0 -45 -2 -45 -27z"/>
<path d="M2083 3183 c4 -130 9 -238 11 -240 2 -2 22 2 45 9 l41 13 0 227 0
228 -52 0 -51 0 6 -237z"/>
<path d="M1577 2459 c-25 -4 -51 -19 -75 -42 -30 -30 -36 -44 -40 -90 -7 -93
39 -155 128 -172 47 -9 114 18 141 57 12 16 23 47 26 69 l6 40 -79 -3 c-73 -3
-79 -5 -82 -25 -3 -21 1 -23 42 -23 51 0 58 -11 24 -34 -25 -18 -80 -21 -108
-6 -23 12 -44 73 -35 102 21 69 103 92 149 43 15 -16 34 -25 55 -25 36 0 37 4
11 47 -31 51 -92 75 -163 62z"/>
<path d="M3343 2458 c-154 -32 -157 -257 -4 -298 105 -28 201 44 201 152 0
101 -91 167 -197 146z m89 -69 c26 -14 48 -67 41 -101 -15 -78 -132 -98 -168
-28 -22 42 -18 74 11 109 28 33 75 42 116 20z"/>
<path d="M1812 2339 l3 -121 32 -28 c44 -39 92 -47 140 -24 58 29 73 69 73
192 l0 102 -35 0 -35 0 0 -101 c0 -118 -8 -139 -53 -139 -52 0 -57 12 -57 132
l0 108 -36 0 -36 0 4 -121z"/>
<path d="M2154 2448 c-24 -11 -44 -48 -44 -78 0 -31 42 -68 94 -83 28 -8 55
-21 60 -30 25 -39 -57 -57 -82 -18 -9 13 -25 21 -43 21 -60 0 -24 -75 48 -100
60 -21 132 13 146 68 14 57 -19 90 -118 120 -43 13 -41 46 3 50 22 2 34 -2 38
-12 4 -10 19 -16 41 -16 31 0 34 2 28 23 -12 41 -52 67 -103 66 -26 0 -57 -5
-68 -11z"/>
<path d="M2360 2430 c0 -28 2 -30 40 -30 l40 0 0 -120 0 -120 35 0 35 0 0 120
0 120 40 0 c38 0 40 2 40 30 l0 30 -115 0 -115 0 0 -30z"/>
<path d="M2667 2316 c-32 -79 -57 -147 -57 -150 0 -3 15 -6 33 -6 27 0 35 5
44 30 11 28 14 30 68 30 53 0 57 -1 66 -30 9 -25 16 -30 45 -30 19 0 34 3 34
7 0 4 -26 72 -57 150 -57 140 -59 143 -89 143 -31 0 -32 -2 -87 -144z m117
-23 c7 -21 4 -23 -28 -23 -41 0 -42 4 -19 62 l17 42 12 -29 c6 -17 15 -40 18
-52z"/>
<path d="M2920 2451 c0 -5 24 -72 54 -148 l53 -138 33 0 32 0 54 140 c30 77
54 143 54 147 0 5 -15 8 -34 8 l-35 0 -32 -100 c-19 -55 -36 -100 -39 -100 -3
0 -21 45 -40 100 -34 99 -35 100 -67 100 -18 0 -33 -4 -33 -9z"/>
<path d="M2863 2039 c-81 -17 -126 -76 -121 -159 6 -92 62 -144 153 -144 101
0 161 66 153 168 -4 49 -10 62 -39 91 -38 38 -95 55 -146 44z m96 -83 c12 -13
24 -39 27 -58 5 -29 1 -41 -23 -68 -59 -66 -158 -28 -158 61 0 33 6 46 28 65
38 32 95 33 126 0z"/>
<path d="M1680 1890 l0 -150 35 0 34 0 3 86 3 86 63 -86 c49 -68 67 -86 87
-86 l25 0 0 150 0 150 -30 0 -30 0 0 -92 0 -91 -65 91 c-58 80 -70 92 -95 92
l-30 0 0 -150z"/>
<path d="M2000 1890 l0 -150 95 0 95 0 0 30 0 30 -60 0 -60 0 0 30 c0 29 1 30
50 30 49 0 50 1 50 30 0 29 -1 30 -50 30 -49 0 -50 1 -50 30 0 30 1 30 55 30
54 0 55 0 55 30 l0 30 -90 0 -90 0 0 -150z"/>
<path d="M2255 2015 c-33 -32 -34 -83 -2 -113 13 -12 46 -29 75 -37 62 -19 72
-32 42 -57 -29 -24 -36 -23 -66 7 -14 14 -36 25 -49 25 -20 0 -25 -5 -25 -25
0 -56 78 -94 151 -75 46 13 69 42 69 91 0 45 -22 66 -92 89 -40 13 -54 22 -56
38 -3 19 1 22 33 22 22 0 38 -6 41 -15 4 -9 19 -15 35 -15 37 0 39 31 4 65
-20 21 -34 25 -80 25 -46 0 -60 -4 -80 -25z"/>
<path d="M2480 2010 c0 -28 2 -30 40 -30 l40 0 0 -120 0 -120 35 0 35 0 0 120
0 120 40 0 c38 0 40 2 40 30 l0 30 -115 0 -115 0 0 -30z"/>
<path d="M3100 1891 l0 -151 35 0 35 0 0 50 c0 43 3 50 20 50 14 0 29 -16 48
-50 25 -46 30 -50 65 -50 l37 0 -31 55 -31 55 26 31 c35 41 34 80 -3 121 -28
32 -33 33 -115 37 l-86 3 0 -151z m154 67 c17 -27 -5 -52 -48 -56 l-36 -3 0
41 0 41 36 -3 c22 -2 42 -10 48 -20z"/>
<path d="M1783 1440 c-12 -27 -17 -50 -12 -50 5 0 9 5 9 10 0 14 54 12 68 -2
9 -9 12 -9 12 0 0 18 -39 92 -48 92 -5 0 -18 -22 -29 -50z m47 -2 c0 -5 -7 -8
-15 -8 -17 0 -18 2 -9 25 5 13 8 14 15 3 5 -7 9 -16 9 -20z"/>
<path d="M1883 1445 l2 -50 35 0 35 0 1 50 c1 34 0 38 -3 13 -5 -42 -28 -67
-45 -50 -6 6 -14 28 -19 49 -7 36 -7 36 -6 -12z"/>
<path d="M1990 1440 l0 -50 45 0 c25 0 45 5 45 10 0 15 58 12 63 -2 2 -7 7
-10 11 -7 9 8 -31 99 -43 99 -5 0 -17 -20 -28 -45 -15 -38 -22 -45 -45 -45
-26 0 -28 3 -28 45 0 25 -4 45 -10 45 -5 0 -10 -22 -10 -50z m134 5 c3 -9 0
-15 -9 -15 -8 0 -15 7 -15 15 0 8 4 15 9 15 5 0 11 -7 15 -15z"/>
<path d="M2174 1475 c-8 -19 3 -34 33 -46 31 -12 19 -33 -14 -24 -16 4 -22 2
-18 -5 9 -15 51 -12 64 4 9 11 8 18 -4 30 -9 9 -23 16 -32 16 -8 0 -13 6 -10
13 2 6 14 11 26 10 13 -2 20 1 16 7 -9 15 -55 12 -61 -5z"/>
<path d="M2300 1440 l0 -50 34 0 c38 0 66 21 66 50 0 29 -28 50 -66 50 l-34 0
0 -50z m77 14 c8 -22 -9 -48 -36 -52 -18 -3 -21 1 -21 32 0 32 3 36 25 36 15
0 28 -7 32 -16z"/>
<path d="M2420 1440 l0 -50 38 1 c30 2 32 3 10 6 -32 5 -38 33 -8 33 11 0 20
5 20 10 0 6 -9 10 -20 10 -11 0 -20 5 -20 10 0 6 9 10 19 10 11 0 23 5 26 10
4 6 -8 10 -29 10 l-36 0 0 -50z"/>
<path d="M2540 1480 c0 -5 7 -10 15 -10 11 0 15 -11 15 -40 0 -22 5 -40 10
-40 6 0 10 18 10 40 0 29 4 40 15 40 8 0 15 5 15 10 0 6 -18 10 -40 10 -22 0
-40 -4 -40 -10z"/>
<path d="M2630 1440 l0 -50 43 2 c36 1 38 2 10 5 -40 5 -46 33 -8 33 14 0 25
5 25 10 0 6 -11 10 -25 10 -14 0 -25 5 -25 10 0 6 11 10 24 10 14 0 28 5 31
10 4 6 -10 10 -34 10 l-41 0 0 -50z"/>
<path d="M2737 1472 c-21 -23 -22 -46 -1 -66 18 -18 60 -21 70 -5 4 8 -1 9
-15 4 -26 -8 -51 10 -51 36 0 22 26 38 53 31 14 -3 18 -1 13 6 -11 18 -51 14
-69 -6z"/>
<path d="M2830 1440 l0 -50 45 0 c25 0 45 5 45 10 0 15 58 12 63 -2 2 -7 7
-10 11 -7 9 8 -31 99 -43 99 -5 0 -17 -20 -28 -45 -15 -38 -22 -45 -45 -45
-26 0 -28 3 -28 45 0 25 -4 45 -10 45 -5 0 -10 -22 -10 -50z m134 5 c3 -9 0
-15 -9 -15 -8 0 -15 7 -15 15 0 8 4 15 9 15 5 0 11 -7 15 -15z"/>
<path d="M3020 1440 c0 -50 0 -50 33 -50 40 0 57 15 57 52 0 30 -23 48 -64 48
-24 0 -26 -3 -26 -50z m70 26 c0 -2 3 -11 6 -19 7 -18 -21 -47 -47 -47 -15 0
-19 7 -19 35 0 32 2 35 30 35 17 0 30 -2 30 -4z"/>
<path d="M3142 1478 c-7 -7 -12 -24 -12 -38 0 -33 17 -50 50 -50 34 0 50 17
50 52 0 41 -59 65 -88 36z m62 -14 c9 -8 16 -19 16 -24 0 -11 -29 -40 -40 -40
-11 0 -40 29 -40 40 0 11 29 40 40 40 5 0 16 -7 24 -16z"/>
</g>
</svg>
